<?xml version="1.0" encoding="UTF-8"?> <svg xmlns="http://www.w3.org/2000/svg" width="45" height="47" viewBox="0 0 45 47" fill="none"><path d="M34.156 34.3643C34.4677 31.7694 34.3743 31.3897 36.3079 31.8106L36.7825 31.8533C38.2699 31.9213 40.2113 31.6159 41.3553 31.0843C43.8125 29.9451 45.2698 28.04 42.8473 28.54C37.3189 29.6793 36.9392 27.809 36.9392 27.809C42.7777 19.1478 45.2144 8.15266 43.11 5.46282C37.3664 -1.87885 27.4203 1.59421 27.2558 1.68439L27.2036 1.69389C26.1118 1.46762 24.8887 1.32997 23.5169 1.3094C21.0169 1.26826 19.1182 1.96445 17.6626 3.05779C17.6626 3.05779 -0.0777007 -4.25223 0.732415 12.2507C0.906463 15.7601 5.76399 38.8105 11.555 31.8485C13.6721 29.3011 15.7164 27.1492 15.7164 27.1492C16.7322 27.8248 17.9315 28.1682 19.2242 28.0448L19.3223 27.9609C19.2927 28.2914 19.306 28.6243 19.3619 28.9514C17.8698 30.6175 18.3081 30.9134 15.3271 31.5257C12.3098 32.1476 14.0819 33.2552 15.2401 33.5447C16.6436 33.896 19.892 34.3928 22.0834 31.3216L21.9964 31.6729C22.5818 32.1412 22.5422 35.0384 22.6245 37.1079C22.7068 39.1775 22.846 41.1111 23.2685 42.2503C23.691 43.3895 24.1862 46.323 28.1102 45.4828C31.3855 44.7803 33.8918 43.7708 34.1196 34.3706" stroke="white"></path><path d="M22.3603 30.2172C22.2084 35.6602 22.3982 41.1395 22.9299 42.4718C23.4615 43.804 24.6023 46.3958 28.5247 45.554C31.8 44.8515 32.993 43.4923 33.5088 40.4908L34.7193 30.8976M17.6768 2.93437C17.6768 2.93437 -0.0761188 -4.32186 0.746654 12.1779C0.90488 15.6905 5.77823 38.7392 11.5693 31.7773C13.6863 29.2457 15.5993 27.2362 15.5993 27.2362M27.2494 1.61002C26.6165 1.80305 37.1227 -2.22379 43.0847 5.40743C45.1891 8.09727 42.7682 19.0939 36.9139 27.7552" stroke="white" stroke-width="0.866" stroke-linecap="round" stroke-linejoin="round"></path><path d="M36.9123 27.741C36.9123 27.741 37.292 29.6128 42.822 28.472C45.2429 27.972 43.7714 29.8754 41.3299 31.0163C39.3141 31.9498 34.7952 32.1919 34.7193 30.8992C34.5294 27.5606 37.099 28.5764 36.9123 27.741ZM36.9123 27.741C36.7446 26.9878 35.5959 26.2489 34.8364 24.4072C34.1718 22.798 25.7384 10.4643 37.1781 12.2966C37.5974 12.2096 34.194 1.4154 23.4884 1.23977C12.7829 1.06414 13.1373 14.4041 13.1373 14.4041" stroke="white" stroke-width="0.866" stroke-linecap="round" stroke-linejoin="bevel"></path><path d="M19.3635 28.8802C17.8714 30.5463 18.3097 30.8422 15.3287 31.4545C12.3114 32.0764 14.0835 33.1839 15.2417 33.4735C16.6452 33.8248 19.8935 34.3216 22.085 31.2504C22.7527 30.3169 22.0818 28.8232 21.1641 28.4419C20.7211 28.2584 20.1277 28.0305 19.3667 28.8802H19.3635Z" stroke="white" stroke-width="0.866" stroke-linejoin="round"></path><path d="M19.2654 28.8517C19.1151 27.8707 19.5882 26.7062 20.0929 25.3391C20.8524 23.2917 22.6245 21.2442 21.2052 14.7507C20.1609 9.91212 13.1389 13.7428 13.1357 14.3994C13.1326 15.056 13.4522 17.7253 13.0186 20.8344C12.449 24.8913 15.5977 28.3232 19.2258 27.9704" stroke="white" stroke-width="0.866" stroke-linecap="round" stroke-linejoin="round"></path><path d="M17.5945 14.3029C17.5629 14.5275 18.0059 15.1256 18.5803 15.2048C19.1546 15.2839 19.6483 14.8171 19.6784 14.594C19.7084 14.3709 19.267 14.1225 18.691 14.0402C18.1151 13.9579 17.623 14.0766 17.5929 14.3013L17.5945 14.3029Z" fill="white" stroke="white" stroke-width="0.289"></path><path d="M35.1164 13.8456C35.1481 14.0703 34.705 14.6684 34.1307 14.7475C33.5563 14.8266 33.0627 14.3598 33.031 14.1367C32.9994 13.9136 33.4424 13.6652 34.0183 13.5861C34.5943 13.507 35.0864 13.6225 35.118 13.8472L35.1164 13.8456Z" fill="white" stroke="white" stroke-width="0.144"></path><path d="M37.1749 12.295C37.2699 14.0513 36.7952 15.2507 36.7367 17.1209C36.648 19.8424 38.0341 22.9547 35.9455 26.0717" stroke="white" stroke-width="0.866" stroke-linecap="round" stroke-linejoin="round"></path></svg> 